Coordinates
version=1
nRows=19
nColumns=33
inDegrees=yes

Units are S.I. units (second, meters, Newtons, ...)
Angles are in degrees.

endheader
time	ground_thorax_rot_x	ground_thorax_rot_y	ground_thorax_rot_z	ground_thorax_tx	ground_thorax_ty	ground_thorax_tz	clav_prot_r	clav_elev_r	scapula_abduction_r	scapula_elevation_r	scapula_upward_rot_r	scapula_winging_r	shoulder_elv_r	plane_of_elev_r	axial_rot_r	elbow_flexion_r	pro_sup_r	wrist_flex_r	wrist_dev_r	clav_prot_l	clav_elev_l	scapula_abduction_l	scapula_elevation_l	scapula_upward_rot_l	scapula_winging_l	shoulder_elv_l	plane_of_elev_l	axial_rot_l	elbow_flexion_l	pro_sup_l	wrist_flex_l	wrist_dev_l
     12.51000000	    -20.53982627	    -34.15116110	     53.35249412	    -16.23723490	    781.62230545	    -38.02581485	     29.49897214	    -45.00000000	     39.60903689	    -45.00000000	    -45.00000000	    975.45987023	   2954.39079663	     19.56288332	   -140.58833418	   2160.33255293	   -200.27944297	     11.18469403	     13.67846407	     -1.69327682	     31.11953890	    -27.91080895	    -45.00000000	    -45.00000000	   3684.61885921	  -3523.88908353	     26.66235268	     49.71701815	   1788.79716872	     40.61629763	     12.57531121	    -15.06177969
     12.52000000	    -20.59965701	    -34.05465288	     53.26739481	    -17.12070309	    781.37360192	    -37.99262460	     29.50777525	    -45.00000000	     39.67069418	    -45.00000000	    -45.00000000	    975.20630942	   2954.38261880	     19.79136496	   -140.48418600	   2160.46858634	   -200.03519228	     11.25123405	     13.68828652	     -1.32696436	     31.09291568	    -27.85547551	    -45.00000000	    -45.00000000	   3684.61861280	  -3523.82939087	     26.62532203	     49.44535360	   1788.82051416	     40.93528052	     12.35185031	    -15.12212882
     12.53000000	    -20.87843560	    -33.90133763	     52.88978834	    -18.06200162	    781.15432575	    -37.95556054	     29.51939471	    -45.00000000	     39.50294622	    -45.00000000	    -45.00000000	    975.47728501	   2954.59730611	     19.64682592	   -140.20078360	   2160.43779332	   -199.71524308	     11.29828302	     13.46953211	     -1.75255536	     31.18988805	    -27.83937085	    -45.00000000	    -45.00000000	   3684.67148500	  -3523.81836496	     26.73296010	     49.13179554	   1788.94038663	     41.25077342	     12.48818748	    -15.12095492
     12.54000000	    -20.89667250	    -33.86991376	     52.99669499	    -19.05778304	    780.96484154	    -37.91784039	     29.47650144	    -45.00000000	     39.71197879	    -45.00000000	    -45.00000000	    975.02607751	   2954.40630283	     19.86299088	   -140.15045495	   2160.61333222	   -199.45719884	     11.40504174	     13.63999390	     -1.04355898	     31.04721068	    -27.95293894	    -45.00000000	    -45.00000000	   3684.74764442	  -3523.77275547	     26.56863965	     48.92528085	   1788.86390935	     41.50913890	     12.10540365	    -15.21437624
     12.55000000	    -21.07450901	    -33.83192413	     52.79863558	    -20.11224683	    780.80203174	    -37.88248430	     29.52022295	    -45.00000000	     39.64980910	    -45.00000000	    -45.00000000	    975.35994526	   2954.66145051	     19.53155406	   -139.97601445	   2160.47285499	   -199.07369737	     11.47346481	     13.42554996	     -1.60667418	     31.15756692	    -28.04771409	    -45.00000000	    -45.00000000	   3684.91931852	  -3523.77753988	     26.48640557	     48.65944083	   1789.04952129	     41.82192009	     12.35723980	    -15.23333580
     12.56000000	    -21.29365143	    -33.65291729	     52.52272647	    -21.22416955	    780.66297299	    -37.85126401	     29.54259385	    -45.00000000	     39.61229022	    -45.00000000	    -45.00000000	    975.09089786	   2954.62517897	     19.82156119	   -139.80914382	   2160.59388563	   -198.74663944	     11.55047412	     13.35459681	     -1.38776532	     31.16902371	    -28.10283388	    -45.00000000	    -45.00000000	   3684.89743557	  -3523.76161180	     26.47377513	     48.41990239	   1789.09201613	     42.05915175	     12.15000224	    -15.34149350
     12.57000000	    -21.43912402	    -33.56267673	     52.31613210	    -22.39737419	    780.54265717	    -37.82471377	     29.49499566	    -45.00000000	     39.57931092	    -45.00000000	    -45.00000000	    975.28422524	   2954.85475360	     19.64075148	   -139.66829258	   2160.58438866	   -198.40131734	     11.60444251	     13.26809958	     -1.54656944	     31.21443805	    -28.04119663	    -45.00000000	    -45.00000000	   3684.96322397	  -3523.73925727	     26.52254825	     48.16243114	   1789.21039643	     42.30446667	     12.23148434	    -15.32729404
     12.58000000	    -21.59642926	    -33.49607568	     52.14872954	    -23.63495291	    780.43765243	    -37.80184148	     29.55079155	    -45.00000000	     39.59745352	    -45.00000000	    -45.00000000	    975.04218549	   2954.81955039	     19.81130539	   -139.54189001	   2160.65251612	   -198.08272469	     11.68570130	     13.22837855	     -1.36707964	     31.20384892	    -28.13530082	    -45.00000000	    -45.00000000	   3685.02735909	  -3523.73171339	     26.41230071	     47.92109373	   1789.23359491	     42.51236663	     12.07143227	    -15.42514533
     12.59000000	    -21.80174771	    -33.36975344	     51.80594864	    -24.93669316	    780.34656474	    -37.78199719	     29.50798077	    -45.00000000	     39.54935268	    -45.00000000	    -45.00000000	    975.17951691	   2955.03016234	     19.76145851	   -139.37041355	   2160.66143437	   -197.76751583	     11.71288611	     13.14414381	     -1.54313606	     31.25539027	    -28.09432558	    -45.00000000	    -45.00000000	   3685.10060562	  -3523.72758108	     26.49057283	     47.68398278	   1789.32933073	     42.71682289	     12.14992653	    -15.42822350
     12.60000000	    -21.99840727	    -33.21304995	     51.56314851	    -26.30222199	    780.27193698	    -37.76450463	     29.54326429	    -45.00000000	     39.52547643	    -45.00000000	    -45.00000000	    974.88789526	   2955.00651648	     19.96245574	   -139.27428887	   2160.68659525	   -197.50548027	     11.79259752	     13.13441332	     -1.27993870	     31.23965780	    -28.10116386	    -45.00000000	    -45.00000000	   3685.07372004	  -3523.65921436	     26.50636804	     47.41627400	   1789.28592006	     42.88938036	     11.95614343	    -15.48682991
     12.61000000	    -22.25296624	    -33.12841688	     51.29936110	    -27.71998532	    780.21956052	    -37.75019762	     29.46043892	    -45.00000000	     39.44901721	    -45.00000000	    -45.00000000	    975.15490768	   2955.18803214	     19.60995466	   -139.15798677	   2160.58168810	   -197.22177988	     11.79852616	     13.05301470	     -1.67735331	     31.34132583	    -28.22550456	    -45.00000000	    -45.00000000	   3685.26944378	  -3523.69587763	     26.51768185	     47.27448842	   1789.44046219	     43.06981403	     12.23544138	    -15.48060521
     12.62000000	    -22.27690737	    -33.11789649	     51.26746967	    -29.19831560	    780.19683167	    -37.74018668	     29.56003059	    -45.00000000	     39.60100970	    -45.00000000	    -45.00000000	    974.78095066	   2955.07845960	     19.86188968	   -139.12558394	   2160.75267498	   -196.98035318	     11.88403009	     13.06590959	     -1.19793522	     31.23230691	    -28.29844853	    -45.00000000	    -45.00000000	   3685.23671664	  -3523.64921701	     26.23581633	     47.03499043	   1789.38398111	     43.22381029	     11.84802277	    -15.56581952
     12.63000000	    -22.54442952	    -33.00062317	     50.88296407	    -30.72774413	    780.21208889	    -37.73640931	     29.52395243	    -45.00000000	     39.46742973	    -45.00000000	    -45.00000000	    974.98548231	   2955.27001165	     19.71224248	   -138.94506575	   2160.68865008	   -196.69011457	     11.89676944	     12.96564520	     -1.57172511	     31.33420223	    -28.33190508	    -45.00000000	    -45.00000000	   3685.40651113	  -3523.66477295	     26.34395907	     46.85531878	   1789.51230058	     43.40907974	     12.04795293	    -15.55934584
     12.64000000	    -22.71369279	    -32.90754799	     50.59790681	    -32.30854597	    780.27290658	    -37.73961549	     29.54709174	    -45.00000000	     39.52261382	    -45.00000000	    -45.00000000	    974.73398249	   2955.23846248	     19.95719612	   -138.88348692	   2160.81994937	   -196.44997330	     11.92411129	     12.97823275	     -1.22465034	     31.28723523	    -28.31293811	    -45.00000000	    -45.00000000	   3685.37086535	  -3523.63523183	     26.29122450	     46.65110898	   1789.49893282	     43.56668815	     11.80342615	    -15.65849301
     12.65000000	    -22.90581807	    -32.83718643	     50.38090503	    -33.94191290	    780.38521369	    -37.74988947	     29.53572234	    -45.00000000	     39.46715664	    -45.00000000	    -45.00000000	    974.82040528	   2955.40460340	     19.74795309	   -138.81546803	   2160.72659569	   -196.17115370	     11.98767657	     12.89823921	     -1.45186051	     31.35616548	    -28.34016070	    -45.00000000	    -45.00000000	   3685.46530561	  -3523.60045700	     26.27361608	     46.43854714	   1789.59268627	     43.78036465	     11.90063530	    -15.62779159
     12.66000000	    -23.11409925	    -32.72374009	     50.08099098	    -35.62425298	    780.55304647	    -37.76661749	     29.56421283	    -45.00000000	     39.45403975	    -45.00000000	    -45.00000000	    974.64204993	   2955.40177696	     19.86273125	   -138.77611294	   2160.76086866	   -195.91253062	     12.03257841	     12.88995342	     -1.31435083	     31.35037070	    -28.42999297	    -45.00000000	    -45.00000000	   3685.53198870	  -3523.58487673	     26.24512043	     46.28773847	   1789.59155992	     43.99008051	     11.78207032	    -15.73069935
     12.67000000	    -23.33404470	    -32.62511592	     49.72904621	    -37.36127076	    780.77938785	    -37.78940333	     29.53881376	    -45.00000000	     39.42109434	    -45.00000000	    -45.00000000	    974.65921018	   2955.50431048	     19.83711483	   -138.74264572	   2160.75941862	   -195.64724045	     12.06231096	     12.84967927	     -1.40381102	     31.38091779	    -28.44650549	    -45.00000000	    -45.00000000	   3685.60232743	  -3523.58070188	     26.26575776	     46.13786162	   1789.65228765	     44.23801279	     11.80056062	    -15.76200809
     12.68000000	    -23.54397278	    -32.49974988	     49.39685303	    -39.15294954	    781.06550736	    -37.81815825	     29.54093073	    -45.00000000	     39.42457964	    -45.00000000	    -45.00000000	    974.54137505	   2955.54266524	     19.89415651	   -138.72713725	   2160.79994564	   -195.39251836	     12.09732813	     12.84145542	     -1.31966582	     31.40547011	    -28.49470396	    -45.00000000	    -45.00000000	   3685.63812441	  -3523.56517609	     26.26009380	     46.00122331	   1789.68495827	     44.50292754	     11.71837557	    -15.85332129
     12.69000000	    -23.77808130	    -32.41819214	     49.01982133	    -41.00018605	    781.41155308	    -37.85337606	     29.52704607	    -45.00000000	     39.39534325	    -45.00000000	    -45.00000000	    974.52301877	   2955.62443099	     19.89877942	   -138.70150341	   2160.79699432	   -195.14952673	     12.13128461	     12.81785148	     -1.37621143	     31.43239606	    -28.52768503	    -45.00000000	    -45.00000000	   3685.72282646	  -3523.55502755	     26.27523424	     45.88501498	   1789.74477553	     44.80093841	     11.71969791	    -15.91163473
